<svg xmlns="http://www.w3.org/2000/svg" xmlns:xlink="http://www.w3.org/1999/xlink" xmlns:inkscape="http://www.inkscape.org/namespaces/inkscape" version="1.1" width="503.265" height="173.15" viewBox="0 0 503.265 173.15">
<path transform="matrix(1,0,0,-1,46.38,128.68599)" stroke-width=".79701" stroke-linecap="butt" stroke-miterlimit="10" stroke-linejoin="miter" fill="none" stroke="#000000" d="M0 0V113.38724H56.69362V0ZM56.69362 113.38724"/>
<path transform="matrix(1,0,0,-1,46.38,128.68599)" stroke-width=".3985" stroke-linecap="butt" stroke-miterlimit="10" stroke-linejoin="miter" fill="none" stroke="#bfbfbf" d="M0 28.3468H56.69362"/>
<path transform="matrix(1,0,0,-1,46.38,128.68599)" stroke-width=".3985" stroke-linecap="butt" stroke-miterlimit="10" stroke-linejoin="miter" fill="none" stroke="#bfbfbf" d="M0 56.69362H56.69362"/>
<path transform="matrix(1,0,0,-1,46.38,128.68599)" stroke-width=".3985" stroke-linecap="butt" stroke-miterlimit="10" stroke-linejoin="miter" fill="none" stroke="#bfbfbf" d="M0 85.04042H56.69362"/>
<text xml:space="preserve" transform="matrix(.6 0 -0 .6 3.2544018 156.1812)" font-size="9.9626" font-family="CMR10"><tspan y="-42.422" x="8.136 13.1173 18.377552 23.358853 28.340153 33.321455 38.302755 43.284055 49.78963 56.295209">0x20000FF0</tspan></text>
<text xml:space="preserve" transform="matrix(.6 0 -0 .6 3.2544018 144.84239)" font-size="9.9626" font-family="CMR10"><tspan y="-70.769" x="8.136 13.1173 18.377552 23.358853 28.340153 33.321455 38.302755 43.284055 49.78963 56.295209">0x20000FF4</tspan></text>
<text xml:space="preserve" transform="matrix(.6 0 -0 .6 3.2544018 133.504)" font-size="9.9626" font-family="CMR10"><tspan y="-99.115" x="8.136 13.1173 18.377552 23.358853 28.340153 33.321455 38.302755 43.284055 49.78963 56.295209">0x20000FF8</tspan></text>
<text xml:space="preserve" transform="matrix(.6 0 -0 .6 2.7896028 122.16559)" font-size="9.9626" font-family="CMR10"><tspan y="-127.461" x="6.974 11.955299 17.215552 22.196852 27.178153 32.15945 37.14075 42.12205 48.62763 54.85425">0x20000FFC</tspan></text>
<text xml:space="preserve" transform="matrix(.6 0 -0 .6 3.9838024 110.78039)" font-size="9.9626" font-family="CMR10"><tspan y="-155.924" x="9.962 14.9433 20.203553 25.184853 30.166153 35.147455 40.128755 45.110055 50.091356 55.072656">0x20001000</tspan></text>
<path transform="matrix(1,0,0,-1,46.38,128.68599)" d="M0 85.04042V113.38724H56.69362V85.04042ZM56.69362 113.38724" fill="#ccccff"/>
<text xml:space="preserve" transform="matrix(1 0 -0 1 0 173.15)" font-size="9.9626" font-family="CMBX10" font-weight="bold"><tspan y="-140.259" x="66.985 73.87912">LR</tspan></text>
<path transform="matrix(1,0,0,-1,46.38,128.68599)" d="M0 56.69362V85.04042H56.69362V56.69362ZM56.69362 85.04042" fill="#ccffcc"/>
<text xml:space="preserve" transform="matrix(1 0 -0 1 0 173.15)" font-size="9.9626" font-family="CMBX10" font-weight="bold"><tspan y="-111.913" x="67.566 76.16373">R4</tspan></text>
<path transform="matrix(1,0,0,-1,46.38,128.68599)" d="M0 28.3468V56.69362H56.69362V28.3468ZM56.69362 56.69362" fill="#fffac2"/>
<text xml:space="preserve" transform="matrix(1 0 -0 1 0 173.15)" font-size="9.9626" font-family="CMBX10" font-weight="bold"><tspan y="-83.566" x="67.566 76.16373">R2</tspan></text>
<path transform="matrix(1,0,0,-1,46.38,128.68599)" d="M0 0V28.3468H56.69362V0ZM56.69362 28.3468" fill="#ffe6cc"/>
<text xml:space="preserve" transform="matrix(1 0 -0 1 0 173.15)" font-size="9.9626" font-family="CMBX10" font-weight="bold"><tspan y="-55.22" x="67.566 76.16373">R0</tspan></text>
<path transform="matrix(1,0,0,-1,46.38,128.68599)" stroke-width=".79701" stroke-linecap="butt" stroke-miterlimit="10" stroke-linejoin="miter" fill="none" stroke="#ff0000" d="M79.37114 0H61.74246"/>
<path transform="matrix(-1,-0,0,1,107.72396,128.68599)" stroke-width=".79701" stroke-linecap="round" stroke-linejoin="round" fill="none" stroke="#ff0000" d="M-2.55046 3.11095C-2.0845 1.24435-1.04614 .36295 0 0-1.04614-.36295-2.0845-1.24435-2.55046-3.11095"/>
<text fill="#ff0000" xml:space="preserve" transform="matrix(1 0 -0 1 0 173.15)" font-size="9.9626" font-family="CMBX10" font-weight="bold"><tspan y="-41.711" x="129.27 135.63611 143.4667 152.37328 158.10178">SP+12</tspan></text>
<text xml:space="preserve" transform="matrix(1 0 -0 1 0 173.15)" font-size="9.9626" font-family="CMR10"><tspan y="-28.249" x="48.021 51.6175 57.156709 59.92631 63.80176 66.571369 71.552669 77.63981 83.179019 87.05447 92.03577 96.18021">InitialStack</tspan></text>
<path transform="matrix(1,0,0,-1,46.38,128.68599)" stroke-width=".79701" stroke-linecap="butt" stroke-miterlimit="10" stroke-linejoin="miter" fill="none" stroke="#000000" d="M175.75012 0V113.38724H232.44374V0ZM232.44374 113.38724"/>
<path transform="matrix(1,0,0,-1,46.38,128.68599)" stroke-width=".3985" stroke-linecap="butt" stroke-miterlimit="10" stroke-linejoin="miter" fill="none" stroke="#bfbfbf" d="M175.75012 28.3468H232.44374"/>
<path transform="matrix(1,0,0,-1,46.38,128.68599)" stroke-width=".3985" stroke-linecap="butt" stroke-miterlimit="10" stroke-linejoin="miter" fill="none" stroke="#bfbfbf" d="M175.75012 56.69362H232.44374"/>
<path transform="matrix(1,0,0,-1,46.38,128.68599)" stroke-width=".3985" stroke-linecap="butt" stroke-miterlimit="10" stroke-linejoin="miter" fill="none" stroke="#bfbfbf" d="M175.75012 85.04042H232.44374"/>
<text xml:space="preserve" transform="matrix(.6 0 -0 .6 73.5536 156.1812)" font-size="9.9626" font-family="CMR10"><tspan y="-42.422" x="183.884 188.8653 194.12555 199.10684 204.08814 209.06943 214.05072 219.03202 225.5376 232.04319">0x20000FF0</tspan></text>
<text xml:space="preserve" transform="matrix(.6 0 -0 .6 73.5536 144.84279)" font-size="9.9626" font-family="CMR10"><tspan y="-70.768" x="183.884 188.8653 194.12555 199.10684 204.08814 209.06943 214.05072 219.03202 225.5376 232.04319">0x20000FF4</tspan></text>
<text xml:space="preserve" transform="matrix(.6 0 -0 .6 73.5536 133.504)" font-size="9.9626" font-family="CMR10"><tspan y="-99.115" x="183.884 188.8653 194.12555 199.10684 204.08814 209.06943 214.05072 219.03202 225.5376 232.04319">0x20000FF8</tspan></text>
<text xml:space="preserve" transform="matrix(.6 0 -0 .6 73.08841 122.16559)" font-size="9.9626" font-family="CMR10"><tspan y="-127.461" x="182.721 187.70229 192.96254 197.94384 202.92513 207.90642 212.88771 217.869 224.37459 230.60123">0x20000FFC</tspan></text>
<text xml:space="preserve" transform="matrix(.6 0 -0 .6 74.284 110.78039)" font-size="9.9626" font-family="CMR10"><tspan y="-155.924" x="185.71 190.6913 195.95156 200.93285 205.91414 210.89543 215.87673 220.85802 225.83931 230.8206">0x20001000</tspan></text>
<path transform="matrix(1,0,0,-1,46.38,128.68599)" d="M175.75012 85.04042V113.38724H232.44374V85.04042ZM232.44374 113.38724" fill="#ccccff"/>
<text xml:space="preserve" transform="matrix(1 0 -0 1 0 173.15)" font-size="9.9626" font-family="CMBX10" font-weight="bold"><tspan y="-140.259" x="242.733 249.62712">LR</tspan></text>
<path transform="matrix(1,0,0,-1,46.38,128.68599)" d="M175.75012 56.69362V85.04042H232.44374V56.69362ZM232.44374 85.04042" fill="#e5e6e5"/>
<text xml:space="preserve" transform="matrix(1 0 -0 1 .000015258789 173.15)" font-size="9.9626" font-family="CMBX10" font-weight="bold"><tspan y="-111.913" x="243.314 251.91172">R4</tspan></text>
<path transform="matrix(1,0,0,-1,46.38,128.68599)" d="M175.75012 28.3468V56.69362H232.44374V28.3468ZM232.44374 56.69362" fill="#d9d9d9"/>
<text xml:space="preserve" transform="matrix(1 0 -0 1 .000015258789 173.15)" font-size="9.9626" font-family="CMBX10" font-weight="bold"><tspan y="-83.566" x="243.314 251.91172">R2</tspan></text>
<path transform="matrix(1,0,0,-1,46.38,128.68599)" d="M175.75012 0V28.3468H232.44374V0ZM232.44374 28.3468" fill="#e5e6e5"/>
<text xml:space="preserve" transform="matrix(1 0 -0 1 .000015258789 173.15)" font-size="9.9626" font-family="CMBX10" font-weight="bold"><tspan y="-55.22" x="243.314 251.91172">R0</tspan></text>
<path transform="matrix(1,0,0,-1,46.38,128.68599)" stroke-width=".3985" stroke-linecap="butt" stroke-miterlimit="10" stroke-linejoin="miter" fill="none" stroke="#7f807f" d="M255.12126 0H237.09409"/>
<path transform="matrix(-1,-0,0,1,283.27485,128.68599)" stroke-width=".3985" stroke-linecap="round" stroke-linejoin="round" fill="none" stroke="#7f807f" d="M-2.07224 2.39104C-1.69365 .95639-.84999 .27895 0 0-.84999-.27895-1.69365-.95639-2.07224-2.39104"/>
<text fill="#7f807f" xml:space="preserve" transform="matrix(1 0 -0 1 0 173.15)" font-size="9.9626" font-family="CMR10"><tspan y="-41.005" x="305.018 312.76893 315.5385 324.39527 329.93449">OldSP</tspan></text>
<path transform="matrix(1,0,0,-1,46.38,128.68599)" stroke-width=".79701" stroke-linecap="butt" stroke-miterlimit="10" stroke-linejoin="miter" fill="none" stroke="#ff0000" d="M255.12126 85.04042H237.4926"/>
<path transform="matrix(-1,-0,0,1,283.4741,43.64557)" stroke-width=".79701" stroke-linecap="round" stroke-linejoin="round" fill="none" stroke="#ff0000" d="M-2.55046 3.11095C-2.0845 1.24435-1.04614 .36295 0 0-1.04614-.36295-2.0845-1.24435-2.55046-3.11095"/>
<text fill="#ff0000" xml:space="preserve" transform="matrix(1 0 -0 1 0 173.15)" font-size="9.9626" font-family="CMBX10" font-weight="bold"><tspan y="-126.75" x="305.018 311.3841 319.2147 328.12126 333.84974">SP+12</tspan></text>
<text xml:space="preserve" transform="matrix(1 0 -0 1 0 173.15)" font-size="9.9626" font-family="CMR10"><tspan y="-29.218" x="223.838 229.3772 239.47928 246.95124 252.76938 258.3086 263.2899 267.16535 271.58876">SPUpdated</tspan></text>
<path transform="matrix(1,0,0,-1,46.38,128.68599)" stroke-width=".79701" stroke-linecap="butt" stroke-miterlimit="10" stroke-linejoin="miter" fill="none" stroke="#000000" d="M351.50028 0V113.38724H408.19389V0ZM408.19389 113.38724"/>
<path transform="matrix(1,0,0,-1,46.38,128.68599)" stroke-width=".3985" stroke-linecap="butt" stroke-miterlimit="10" stroke-linejoin="miter" fill="none" stroke="#bfbfbf" d="M351.50028 28.3468H408.19389"/>
<path transform="matrix(1,0,0,-1,46.38,128.68599)" stroke-width=".3985" stroke-linecap="butt" stroke-miterlimit="10" stroke-linejoin="miter" fill="none" stroke="#bfbfbf" d="M351.50028 56.69362H408.19389"/>
<path transform="matrix(1,0,0,-1,46.38,128.68599)" stroke-width=".3985" stroke-linecap="butt" stroke-miterlimit="10" stroke-linejoin="miter" fill="none" stroke="#bfbfbf" d="M351.50028 85.04042H408.19389"/>
<text xml:space="preserve" transform="matrix(.6 0 -0 .6 143.85282 156.1812)" font-size="9.9626" font-family="CMR10"><tspan y="-42.422" x="359.632 364.61329 369.87355 374.85484 379.83613 384.8174 389.7987 394.78 401.28559 407.79118">0x20000FF0</tspan></text>
<text xml:space="preserve" transform="matrix(.6 0 -0 .6 143.85282 144.84279)" font-size="9.9626" font-family="CMR10"><tspan y="-70.768" x="359.632 364.61329 369.87355 374.85484 379.83613 384.8174 389.7987 394.78 401.28559 407.79118">0x20000FF4</tspan></text>
<text xml:space="preserve" transform="matrix(.6 0 -0 .6 143.85282 133.504)" font-size="9.9626" font-family="CMR10"><tspan y="-99.115" x="359.632 364.61329 369.87355 374.85484 379.83613 384.8174 389.7987 394.78 401.28559 407.79118">0x20000FF8</tspan></text>
<text xml:space="preserve" transform="matrix(.6 0 -0 .6 143.38759 122.16559)" font-size="9.9626" font-family="CMR10"><tspan y="-127.461" x="358.469 363.4503 368.71055 373.69184 378.67314 383.65443 388.6357 393.617 400.1226 406.3492">0x20000FFC</tspan></text>
<text xml:space="preserve" transform="matrix(.6 0 -0 .6 144.58319 110.78039)" font-size="9.9626" font-family="CMR10"><tspan y="-155.924" x="361.458 366.4393 371.69956 376.68086 381.66215 386.64344 391.62474 396.60603 401.5873 406.5686">0x20001000</tspan></text>
<path transform="matrix(1,0,0,-1,46.38,128.68599)" d="M351.50028 85.04042V113.38724H408.19389V85.04042ZM408.19389 113.38724" fill="#ccccff"/>
<text xml:space="preserve" transform="matrix(1 0 -0 1 .000030517579 173.15)" font-size="9.9626" font-family="CMBX10" font-weight="bold"><tspan y="-140.259" x="418.481 425.37513">LR</tspan></text>
<path transform="matrix(1,0,0,-1,46.38,128.68599)" d="M351.50028 56.69362V85.04042H408.19389V56.69362ZM408.19389 85.04042" fill="#e5e6e5"/>
<text xml:space="preserve" transform="matrix(1 0 -0 1 0 173.15)" font-size="8.9664" font-family="CMR9"><tspan y="-112.267" x="407.153 413.94059">R4</tspan></text>
<text xml:space="preserve" transform="matrix(1 0 -0 1 0 173.15)" font-size="8.9664" font-family="CMSY9" font-style="italic"><tspan y="-112.267" x="421.6158">&#x2192;</tspan></text>
<text xml:space="preserve" transform="matrix(1 0 -0 1 0 173.15)" font-size="8.9664" font-family="CMR9"><tspan y="-112.267" x="433.90876 440.69633">R8</tspan></text>
<path transform="matrix(1,0,0,-1,46.38,128.68599)" d="M351.50028 28.3468V56.69362H408.19389V28.3468ZM408.19389 56.69362" fill="#d9d9d9"/>
<text xml:space="preserve" transform="matrix(1 0 -0 1 0 173.15)" font-size="8.9664" font-family="CMR9"><tspan y="-83.92" x="407.153 413.94059">R2</tspan></text>
<text xml:space="preserve" transform="matrix(1 0 -0 1 0 173.15)" font-size="8.9664" font-family="CMSY9" font-style="italic"><tspan y="-83.92" x="421.6158">&#x2192;</tspan></text>
<text xml:space="preserve" transform="matrix(1 0 -0 1 0 173.15)" font-size="8.9664" font-family="CMR9"><tspan y="-83.92" x="433.90876 440.69633">R7</tspan></text>
<path transform="matrix(1,0,0,-1,46.38,128.68599)" d="M351.50028 0V28.3468H408.19389V0ZM408.19389 28.3468" fill="#e5e6e5"/>
<text xml:space="preserve" transform="matrix(1 0 -0 1 0 173.15)" font-size="8.9664" font-family="CMR9"><tspan y="-55.574" x="407.153 413.94059">R0</tspan></text>
<text xml:space="preserve" transform="matrix(1 0 -0 1 0 173.15)" font-size="8.9664" font-family="CMSY9" font-style="italic"><tspan y="-55.574" x="421.6248">&#x2192;</tspan></text>
<text xml:space="preserve" transform="matrix(1 0 -0 1 0 173.15)" font-size="8.9664" font-family="CMR9"><tspan y="-55.574" x="433.90876 440.69633">R6</tspan></text>
<path transform="matrix(1,0,0,-1,46.38,128.68599)" stroke-width=".79701" stroke-linecap="butt" stroke-miterlimit="10" stroke-linejoin="miter" fill="none" stroke="#ff0000" d="M430.8714 85.04042H413.2427"/>
<path transform="matrix(-1,-0,0,1,459.2242,43.64557)" stroke-width=".79701" stroke-linecap="round" stroke-linejoin="round" fill="none" stroke="#ff0000" d="M-2.55046 3.11095C-2.0845 1.24435-1.04614 .36295 0 0-1.04614-.36295-2.0845-1.24435-2.55046-3.11095"/>
<text fill="#ff0000" xml:space="preserve" transform="matrix(1 0 -0 1 0 173.15)" font-size="9.9626" font-family="CMBX10" font-weight="bold"><tspan y="-126.086" x="480.766 487.13209">SP</tspan></text>
<text xml:space="preserve" transform="matrix(.6 0 -0 .6 143.37439 108.34)" font-size="9.9626" font-family="CMR10"><tspan y="-162.025" x="358.436 365.90797 368.67756 373.65885 379.19807 383.62147 390.84434 395.82563 401.36485 406.90406 410.8094">Higheraddr.</tspan></text>
<text xml:space="preserve" transform="matrix(.6 0 -0 .6 144.07199 158.46199)" font-size="9.9626" font-family="CMR10"><tspan y="-36.72" x="360.18 366.40663 371.10896 378.02299 382.44639 389.67924 394.66053 400.19975 405.73896 409.6443">Loweraddr.</tspan></text>
<text xml:space="preserve" transform="matrix(1 0 -0 1 0 173.15)" font-size="9.9626" font-family="CMR10"><tspan y="-28.249" x="391.215 397.86006 402.84135 405.61094 411.15016 415.57356 422.81636 430.14884 434.57225 438.4975 442.37297 447.35426 451.25959 455.68299">ValuesRestored</tspan></text>
<text xml:space="preserve" transform="matrix(1 0 -0 1 0 173.15)" font-size="9.9626" font-family="CMR10"><tspan y="-10.792" x="178.481 184.0202 187.89566 192.87696 197.02141 205.60918 210.59047 216.39867 220.82207 224.7274 229.7087 233.58415 236.35376 241.33506 250.20177 253.25032 258.23164">Stackoperationfor</tspan></text>
<text xml:space="preserve" transform="matrix(1 0 -0 1 0 173.15)" font-size="9.9626" font-family="CMTT10"><tspan y="-10.792" x="265.4545 270.68489 275.91526">POP</tspan></text>
<text xml:space="preserve" transform="matrix(1 0 -0 1 0 173.15)" font-size="9.9626" font-family="CMSY10" font-style="italic"><tspan y="-10.792" x="286.376">{</tspan></text>
<text xml:space="preserve" transform="matrix(1 0 -0 1 0 173.15)" font-size="9.9626" font-family="CMTT10"><tspan y="-10.792" x="291.3573 296.58769 301.81806 307.04844 312.2788">R6-R8</tspan></text>
<text xml:space="preserve" transform="matrix(1 0 -0 1 0 173.15)" font-size="9.9626" font-family="CMSY10" font-style="italic"><tspan y="-10.792" x="317.5092">}</tspan></text>
</svg>
