<!DOCTYPE svg PUBLIC "-//W3C//DTD SVG 1.1//EN" "http://www.w3.org/Graphics/SVG/1.1/DTD/svg11.dtd">
<svg xmlns:ev="http://www.w3.org/2001/xml-events" xmlns:xlink="http://www.w3.org/1999/xlink" xmlns="http://www.w3.org/2000/svg" xmlns:v="http://schemas.microsoft.com/visio/2003/SVGExtensions/" width="467.16" height="258.68544" xml:space="preserve" color-interpolation-filters="sRGB" class="st10" version="1.1">  
 <style type="text/css">
	<![CDATA[
		.st1 {fill:none;stroke:none;stroke-linecap:butt;stroke-width:0.5}
		.st2 {fill:#ffffff;stroke:none;stroke-linecap:butt;stroke-width:7.2}
		.st3 {fill:#000000;font-family:Arial,Helvetica,sans-serif;font-size:0.666664em}
		.st4 {fill:#b3b3b3;fill-opacity:0.85;stroke:#000000;stroke-linecap:butt;stroke-width:0.5}
		.st5 {fill:none;stroke:#000000;stroke-linecap:butt;stroke-width:0.5}
		.st6 {stroke:#000000;stroke-linecap:butt;stroke-width:0.5}
		.st7 {font-size:1em}
		.st8 {fill:#000000;font-family:Arial,Helvetica,sans-serif;font-size:0.666664em;font-style:italic}
		.st9 {font-size:1em;font-style:normal}
		.st10 {fill:none;fill-rule:evenodd;font-size:12px;overflow:visible;stroke-linecap:square;stroke-miterlimit:3}
	]]>
	</style> 
 <g> 
  <title>Page-1</title>  
  <g id="shape11-1" transform="translate(0.5,-0.5)"> 
   <title>Sheet.11</title> 
   <desc>
    Program Status Register
   </desc>   
   <rect x="0" y="182.675" width="96.378" height="11.3386" class="st1"/> 
   <rect x="7.43582" y="183.544" width="87.5893" height="9.59985" class="st2"/> 
   <text x="7.81" y="190.74" class="st3">
    Program Status Register
   </text> 
  </g> 
  <g id="shape15-5" transform="translate(99.0039,-34.5157)"> 
   <title>Sheet.15</title> 
   <desc>
    r13 (SP)
   </desc>   
   <rect x="0" y="182.675" width="79.3701" height="11.3386" class="st4"/> 
   <rect x="24.4075" y="183.544" width="29.785" height="9.59985" class="st2"/> 
   <text x="24.78" y="190.74" class="st3">
    r13 (SP)
   </text> 
  </g> 
  <g id="shape16-9" transform="translate(99.0039,-23.1772)"> 
   <title>Sheet.16</title> 
   <desc>
    r14 (LR)
   </desc>   
   <rect x="0" y="182.675" width="79.3701" height="11.3386" class="st5"/> 
   <rect x="24.63" y="183.544" width="29.3401" height="9.59985" class="st2"/> 
   <text x="25" y="190.74" class="st3">
    r14 (LR)
   </text> 
  </g> 
  <g id="shape17-13" transform="translate(99.0039,-11.8386)"> 
   <title>Sheet.17</title> 
   <desc>
    r15 (PC)
   </desc>   
   <rect x="0" y="182.675" width="79.3701" height="11.3386" class="st5"/> 
   <rect x="24.1867" y="183.544" width="30.2267" height="9.59985" class="st2"/> 
   <text x="24.56" y="190.74" class="st3">
    r15 (PC)
   </text> 
  </g> 
  <g id="shape18-17" transform="translate(99.0039,-125.224)"> 
   <title>Sheet.18</title> 
   <desc>
    r5
   </desc>   
   <rect x="0" y="182.675" width="79.3701" height="11.3386" class="st5"/> 
   <rect x="35.7435" y="183.544" width="7.11337" height="9.59985" class="st2"/> 
   <text x="36.12" y="190.74" class="st3">
    r5
   </text> 
  </g> 
  <g id="shape19-21" transform="translate(99.0039,-113.886)"> 
   <title>Sheet.19</title> 
   <desc>
    r6
   </desc>   
   <rect x="0" y="182.675" width="79.3701" height="11.3386" class="st5"/> 
   <rect x="35.7435" y="183.544" width="7.11337" height="9.59985" class="st2"/> 
   <text x="36.12" y="190.74" class="st3">
    r6
   </text> 
  </g> 
  <g id="shape20-25" transform="translate(99.0039,-102.547)"> 
   <title>Sheet.20</title> 
   <desc>
    r7
   </desc>   
   <rect x="0" y="182.675" width="79.3701" height="11.3386" class="st5"/> 
   <rect x="35.7435" y="183.544" width="7.11337" height="9.59985" class="st2"/> 
   <text x="36.12" y="190.74" class="st3">
    r7
   </text> 
  </g> 
  <g id="shape21-29" transform="translate(99.0039,-181.917)"> 
   <title>Sheet.21</title> 
   <desc>
    r0
   </desc>   
   <rect x="0" y="182.675" width="79.3701" height="11.3386" class="st5"/> 
   <rect x="35.7435" y="183.544" width="7.11337" height="9.59985" class="st2"/> 
   <text x="36.12" y="190.74" class="st3">
    r0
   </text> 
  </g> 
  <g id="shape22-33" transform="translate(99.0039,-170.579)"> 
   <title>Sheet.22</title> 
   <desc>
    r1
   </desc>   
   <rect x="0" y="182.675" width="79.3701" height="11.3386" class="st5"/> 
   <rect x="35.7435" y="183.544" width="7.11337" height="9.59985" class="st2"/> 
   <text x="36.12" y="190.74" class="st3">
    r1
   </text> 
  </g> 
  <g id="shape23-37" transform="translate(99.0039,-147.902)"> 
   <title>Sheet.23</title> 
   <desc>
    r3
   </desc>   
   <rect x="0" y="182.675" width="79.3701" height="11.3386" class="st5"/> 
   <rect x="35.7435" y="183.544" width="7.11337" height="9.59985" class="st2"/> 
   <text x="36.12" y="190.74" class="st3">
    r3
   </text> 
  </g> 
  <g id="shape24-41" transform="translate(99.0039,-136.563)"> 
   <title>Sheet.24</title> 
   <desc>
    r4
   </desc>   
   <rect x="0" y="182.675" width="79.3701" height="11.3386" class="st5"/> 
   <rect x="35.7435" y="183.544" width="7.11337" height="9.59985" class="st2"/> 
   <text x="36.12" y="190.74" class="st3">
    r4
   </text> 
  </g> 
  <g id="shape25-45" transform="translate(99.0039,-159.24)"> 
   <title>Sheet.25</title> 
   <desc>
    r2
   </desc>   
   <rect x="0" y="182.675" width="79.3701" height="11.3386" class="st5"/> 
   <rect x="35.7435" y="183.544" width="7.11337" height="9.59985" class="st2"/> 
   <text x="36.12" y="190.74" class="st3">
    r2
   </text> 
  </g> 
  <g id="shape26-49" transform="translate(99.0039,-68.5315)"> 
   <title>Sheet.26</title> 
   <desc>
    r10
   </desc>   
   <rect x="0" y="182.675" width="79.3701" height="11.3386" class="st5"/> 
   <rect x="33.5187" y="183.544" width="11.5626" height="9.59985" class="st2"/> 
   <text x="33.89" y="190.74" class="st3">
    r10
   </text> 
  </g> 
  <g id="shape27-53" transform="translate(99.0039,-57.1929)"> 
   <title>Sheet.27</title> 
   <desc>
    r11
   </desc>   
   <rect x="0" y="182.675" width="79.3701" height="11.3386" class="st5"/> 
   <rect x="33.5187" y="183.544" width="11.5626" height="9.59985" class="st2"/> 
   <text x="33.89" y="190.74" class="st3">
    r11
   </text> 
  </g> 
  <g id="shape28-57" transform="translate(99.0039,-45.8543)"> 
   <title>Sheet.28</title> 
   <desc>
    r12
   </desc>   
   <rect x="0" y="182.675" width="79.3701" height="11.3386" class="st5"/> 
   <rect x="33.5187" y="183.544" width="11.5626" height="9.59985" class="st2"/> 
   <text x="33.89" y="190.74" class="st3">
    r12
   </text> 
  </g> 
  <g id="shape29-61" transform="translate(99.0039,-91.2087)"> 
   <title>Sheet.29</title> 
   <desc>
    r8
   </desc>   
   <rect x="0" y="182.675" width="79.3701" height="11.3386" class="st5"/> 
   <rect x="35.7435" y="183.544" width="7.11337" height="9.59985" class="st2"/> 
   <text x="36.12" y="190.74" class="st3">
    r8
   </text> 
  </g> 
  <g id="shape30-65" transform="translate(99.0039,-79.8701)"> 
   <title>Sheet.30</title> 
   <desc>
    r9
   </desc>   
   <rect x="0" y="182.675" width="79.3701" height="11.3386" class="st5"/> 
   <rect x="35.7435" y="183.544" width="7.11337" height="9.59985" class="st2"/> 
   <text x="36.12" y="190.74" class="st3">
    r9
   </text> 
  </g> 
  <g id="group32-69" transform="translate(93.3346,-45.8543) scale(-1,1)"> 
   <title>Sheet.32</title> 
   <g id="group33-70" transform="translate(2.83227,-25.5148)"> 
    <title>Sheet.33</title> 
    <g id="shape34-71" transform="translate(-135.516,55.168) rotate(-45.4884) scale(-1,1)"> 
     <title>Sheet.34</title> 
     <path d="M-0 194.01 A3.7602 2.77248 92.35 0 1 3.97 194.01" class="st6"/> 
    </g> 
    <g id="shape35-74" transform="translate(-135.516,327.196) rotate(-134.512)"> 
     <title>Sheet.35</title> 
     <path d="M-0 194.01 A3.7602 2.77248 92.35 0 1 3.97 194.01" class="st6"/> 
    </g> 
   </g> 
   <g id="shape36-77" transform="translate(139.547,328.772) rotate(-45.9937) scale(1,-1)"> 
    <title>Sheet.36</title> 
    <path d="M-0 194.01 A3.76019 2.76821 92.33 0 1 3.96 194.01" class="st6"/> 
   </g> 
   <g id="shape37-80" transform="translate(139.547,2.56227) rotate(45.9937)"> 
    <title>Sheet.37</title> 
    <path d="M-0 194.01 A3.76019 2.76821 92.33 0 1 3.96 194.01" class="st6"/> 
   </g> 
   <g id="shape38-83" transform="translate(196.846,140.183) rotate(90)"> 
    <title>Sheet.38</title> 
    <path d="M0 194.01 L22.65 194.01" class="st6"/> 
   </g> 
   <g id="shape39-86" transform="translate(196.846,168.499) rotate(90)"> 
    <title>Sheet.39</title> 
    <path d="M0 194.01 L22.65 194.01" class="st6"/> 
   </g> 
  </g> 
  <g id="group40-89" transform="translate(93.3346,-102.547) scale(-1,1)"> 
   <title>Sheet.40</title> 
   <g id="shape41-90" transform="translate(139.517,-31.4843) rotate(45.981)"> 
    <title>Sheet.41</title> 
    <path d="M-0 194.01 A3.76019 2.7699 92.34 0 1 3.97 194.01" class="st6"/> 
   </g> 
   <g id="group42-93" transform="translate(2.82988,-42.5216)"> 
    <title>Sheet.42</title> 
    <g id="shape43-94" transform="translate(-135.483,55.1362) rotate(-45.4757) scale(-1,1)"> 
     <title>Sheet.43</title> 
     <path d="M-0 194.01 A3.7602 2.77418 92.35 0 1 3.97 194.01" class="st6"/> 
    </g> 
    <g id="shape44-97" transform="translate(-135.483,327.226) rotate(-134.524)"> 
     <title>Sheet.44</title> 
     <path d="M-0 194.01 A3.7602 2.77418 92.35 0 1 3.97 194.01" class="st6"/> 
    </g> 
   </g> 
   <g id="shape45-100" transform="translate(196.848,106.168) rotate(90)"> 
    <title>Sheet.45</title> 
    <path d="M0 194.01 L39.66 194.01" class="st6"/> 
   </g> 
   <g id="shape46-103" transform="translate(139.517,328.803) rotate(-45.981) scale(1,-1)"> 
    <title>Sheet.46</title> 
    <path d="M-0 194.01 A3.76019 2.7699 92.34 0 1 3.97 194.01" class="st6"/> 
   </g> 
   <g id="shape47-106" transform="translate(196.848,151.492) rotate(90)"> 
    <title>Sheet.47</title> 
    <path d="M0 194.01 L39.66 194.01" class="st6"/> 
   </g> 
  </g> 
  <g id="shape49-109" transform="translate(30.9724,-142.232)"> 
   <title>Sheet.49</title> 
   <desc>
    low registers
   </desc>   
   <rect x="0" y="182.675" width="56.6929" height="11.3386" class="st1"/> 
   <rect x="7.42264" y="183.544" width="44.9025" height="9.59985" class="st2"/> 
   <text x="7.8" y="190.74" class="st3">
    low registers
   </text> 
  </g> 
  <g id="shape50-113" transform="translate(30.9724,-68.5315)"> 
   <title>Sheet.50</title> 
   <desc>
    high registers
   </desc>   
   <rect x="0" y="182.675" width="56.6929" height="11.3386" class="st1"/> 
   <rect x="4.3017" y="183.544" width="48.0234" height="9.59985" class="st2"/> 
   <text x="4.68" y="190.74" class="st3">
    high registers
   </text> 
  </g> 
  <g id="shape51-117" transform="translate(270.5,-34.5157)"> 
   <title>Sheet.51</title> 
   <desc>
    SP_main
   </desc>   
   <rect x="0" y="182.675" width="79.3701" height="11.3386" class="st5"/> 
   <rect x="23.0699" y="183.544" width="32.4605" height="9.59985" class="st2"/> 
   <text x="23.44" y="190.74" class="st3">
    SP_
    <tspan class="st7">
     main
    </tspan>
   </text> 
  </g> 
  <g id="shape13-122" transform="translate(185.461,-34.5157)"> 
   <title>Sheet.13</title> 
   <desc>
    SP_process
   </desc>   
   <rect x="0" y="182.675" width="79.3701" height="11.3386" class="st5"/> 
   <rect x="17.7336" y="183.544" width="43.1329" height="9.59985" class="st2"/> 
   <text x="18.11" y="190.74" class="st3">
    SP
    <tspan class="st7">
     _
    </tspan>
    <tspan class="st7">
     process
    </tspan>
   </text> 
  </g> 
  <g id="shape52-128" transform="translate(99.2874,-0.5)"> 
   <title>Sheet.52</title> 
   <desc>
    xPSR
   </desc>   
   <rect x="0" y="182.675" width="79.3701" height="11.3386" class="st5"/> 
   <text x="29.45" y="190.75" class="st8">
    x
    <tspan class="st9">
     PSR
    </tspan>
   </text> 
  </g> 
 </g> 
<script xmlns=""/></svg>